<svg width="62" height="17" viewBox="0 0 62 17" fill="none" xmlns="http://www.w3.org/2000/svg">
<path d="M57.3781 11.4798H60.058C60.0183 10.4176 59.5388 9.96239 58.7448 9.96239C58.1212 9.96239 57.5419 10.3063 57.3781 11.4798ZM58.8009 16.0735C56.736 16.0735 55.3277 14.8326 55.3277 12.4308V12.2975C55.3277 9.88309 56.8173 8.55624 58.7322 8.55624C60.5104 8.55624 62 9.56454 62 11.9517V12.8214H57.351C57.4322 14.1169 57.9739 14.6154 58.8406 14.6154C59.1345 14.6425 59.4283 14.5628 59.6691 14.3906C59.9098 14.2184 60.0817 13.9651 60.1537 13.6764H62.0033C61.7919 15.0406 60.6743 16.0735 58.8009 16.0735ZM50.5538 8.70685H52.5567V10.0317C52.7118 9.59111 53.0055 9.2138 53.393 8.95728C53.7804 8.70076 54.2404 8.57911 54.7028 8.61088V10.5975C53.3507 10.5975 52.5567 11.0167 52.5567 12.2109V15.9329H50.5598L50.5538 8.70685ZM49.1006 15.9229H47.1031V14.86C46.9126 15.2452 46.6142 15.5655 46.2449 15.7812C45.8756 15.997 45.4516 16.0986 45.0256 16.0735C43.7422 16.0735 42.7969 15.2878 42.7969 13.5897V8.70685H44.8077V13.2885C44.8077 14.1142 45.1379 14.5021 45.846 14.5021C46.0199 14.512 46.1938 14.4837 46.3556 14.4189C46.5175 14.3542 46.6634 14.2546 46.7833 14.1272C46.9031 13.9997 46.994 13.8475 47.0495 13.681C47.1051 13.5145 47.1241 13.3378 47.1051 13.1632V8.70685H49.1013L49.1006 15.9229ZM40.2141 6.52631V8.70618H41.5808V10.209H40.2128V13.6277C40.2128 14.1662 40.4579 14.4135 40.9229 14.4135C41.1617 14.4216 41.3995 14.3794 41.6211 14.2895V15.8636C41.2556 15.9662 40.8776 16.0169 40.4982 16.0142C38.9379 16.0142 38.2007 15.2971 38.2007 13.8343V10.2096H37.3711V8.70685H38.2021V7.35534L40.2141 6.52631ZM30.1584 8.70685H32.1547V9.78246C32.3641 9.39325 32.6782 9.07154 33.0607 8.85428C33.4433 8.63702 33.8788 8.53303 34.3173 8.55424C35.6153 8.55424 36.478 9.34195 36.478 11.0947V15.9336H34.4811V11.3979C34.4811 10.5595 34.1383 10.1823 33.4137 10.1823C33.239 10.1691 33.0636 10.1953 32.9002 10.259C32.7367 10.3226 32.5894 10.4222 32.4689 10.5504C32.3483 10.6787 32.2576 10.8324 32.2033 11.0004C32.1489 11.1684 32.1323 11.3465 32.1547 11.5218V15.9336H30.1604L30.1584 8.70685ZM24.3046 11.4798H26.9864C26.9448 10.4176 26.4653 9.96239 25.6739 9.96239C25.0504 9.96239 24.4691 10.3063 24.3046 11.4798ZM25.7274 16.0735C23.6625 16.0735 22.2542 14.8326 22.2542 12.4308V12.2975C22.2542 9.88309 23.7438 8.55624 25.6587 8.55624C27.437 8.55624 28.9285 9.56454 28.9285 11.9517V12.8214H24.2775C24.3607 14.1169 24.9011 14.6154 25.769 14.6154C26.0633 14.642 26.3573 14.5617 26.5982 14.3891C26.839 14.2165 27.0109 13.9628 27.0829 13.6737H28.9325C28.7085 15.0406 27.6014 16.0735 25.7274 16.0735ZM18.2327 16.0735C16.2511 16.0735 14.8137 14.8326 14.8137 12.3915V12.2949C14.8137 9.8511 16.3449 8.55357 18.2486 8.55357C19.8769 8.55357 21.2171 9.39194 21.381 11.2779H19.4653C19.3425 10.5755 18.9877 10.119 18.2895 10.119C17.442 10.119 16.8541 10.7961 16.8541 12.2149V12.4248C16.8541 13.891 17.3733 14.5501 18.3074 14.5501C18.6464 14.54 18.9691 14.4004 19.21 14.1596C19.451 13.9187 19.5923 13.5945 19.6054 13.2525H21.4252C21.4084 13.6517 21.3115 14.0432 21.1403 14.4035C20.9691 14.7637 20.7272 15.0851 20.4293 15.3483C20.1314 15.6115 19.7836 15.8109 19.4071 15.9346C19.0306 16.0582 18.6331 16.1034 18.2387 16.0675L18.2327 16.0735ZM10.8021 16.0735C8.82044 16.0735 7.38306 14.8326 7.38306 12.3915V12.2949C7.37249 9.8551 8.90234 8.55357 10.8021 8.55357C12.4304 8.55357 13.7707 9.39194 13.9345 11.2779H12.0222C11.8993 10.5755 11.5446 10.119 10.8464 10.119C9.99887 10.119 9.41097 10.7961 9.41097 12.2149V12.4248C9.41097 13.891 9.93017 14.5501 10.8642 14.5501C11.2033 14.54 11.5259 14.4004 11.7669 14.1596C12.0078 13.9187 12.1491 13.5945 12.1622 13.2525H13.982C13.9652 13.6517 13.8683 14.0432 13.6971 14.4035C13.5259 14.7637 13.2841 15.0851 12.9861 15.3483C12.6882 15.6115 12.3405 15.8109 11.9639 15.9346C11.5874 16.0582 11.1899 16.1034 10.7955 16.0675L10.8021 16.0735ZM4.26655 13.5211V12.8314H3.47388C2.48832 12.8314 1.98167 13.1079 1.98167 13.7557V13.8223C1.98167 14.3188 2.28091 14.6607 2.95203 14.6607C3.11414 14.6788 3.2782 14.6629 3.43394 14.6141C3.58969 14.5652 3.73377 14.4845 3.85716 14.3769C3.98055 14.2693 4.0806 14.1372 4.15104 13.9888C4.22148 13.8404 4.26081 13.6789 4.26655 13.5144V13.5211ZM2.35093 16.0735C1.06746 16.0735 0 15.4111 0 13.951V13.867C0 12.0876 1.53117 11.5072 3.37743 11.5072H4.26655V11.1633C4.26655 10.4442 3.95278 10.0044 3.21362 10.0044C3.08101 9.99064 2.94702 10.0043 2.81982 10.0446C2.69263 10.0848 2.5749 10.1508 2.47382 10.2385C2.37275 10.3262 2.29046 10.4337 2.23196 10.5546C2.17346 10.6754 2.14 10.807 2.1336 10.9414H0.217984C0.35538 9.34195 1.61374 8.55424 3.30874 8.55424C5.00373 8.55424 6.26275 9.30063 6.26275 11.0947V15.9336H4.30816V15.0952C4.08996 15.4112 3.79625 15.6665 3.45424 15.8375C3.11223 16.0085 2.73297 16.0897 2.35159 16.0735H2.35093Z" fill="black"/>
<path d="M36.1371 4.60833L39.7042 3.26882L36.1371 1.86266V0L42.2506 2.48377V4.02987L36.1371 6.5263V4.60833Z" fill="black"/>
</svg>
