<svg width="247" height="64" viewBox="0 0 247 64" fill="none" xmlns="http://www.w3.org/2000/svg">
<path d="M227.739 45.5645H238.375C238.218 41.3482 236.314 39.5416 233.163 39.5416C230.688 39.5416 228.389 40.9064 227.739 45.5645ZM233.386 63.7971C225.19 63.7971 219.6 58.872 219.6 49.339V48.81C219.6 39.2268 225.513 33.9604 233.113 33.9604C240.171 33.9604 246.083 37.9625 246.083 47.4372V50.8891H227.631C227.953 56.0311 230.103 58.0097 233.543 58.0097C234.71 58.1173 235.876 57.8009 236.832 57.1175C237.787 56.4341 238.47 55.4288 238.755 54.2827H246.096C245.257 59.6972 240.821 63.7971 233.386 63.7971ZM200.653 34.5582H208.602V39.8167C209.218 38.0679 210.383 36.5703 211.921 35.5522C213.459 34.534 215.285 34.0512 217.12 34.1773V42.0624C211.753 42.0624 208.602 43.7261 208.602 48.4661V63.239H200.676L200.653 34.5582ZM194.885 63.1993H186.956V58.9804C186.2 60.5094 185.016 61.7808 183.55 62.6371C182.084 63.4933 180.401 63.8967 178.711 63.7971C173.616 63.7971 169.865 60.6786 169.865 53.9389V34.5582H177.845V52.7433C177.845 56.0205 179.156 57.56 181.967 57.56C182.657 57.5995 183.347 57.4869 183.99 57.2299C184.632 56.9729 185.211 56.5777 185.687 56.0719C186.162 55.5661 186.523 54.9618 186.744 54.3011C186.964 53.6404 187.039 52.939 186.964 52.246V34.5582H194.887L194.885 63.1993ZM159.613 25.9034V34.5556H165.038V40.5203H159.608V54.0896C159.608 56.2269 160.581 57.2082 162.427 57.2082C163.374 57.2404 164.318 57.0729 165.198 56.7162V62.9639C163.747 63.3713 162.247 63.5725 160.741 63.5617C154.548 63.5617 151.622 60.7156 151.622 54.9096V40.5229H148.329V34.5582H151.627V29.1939L159.613 25.9034ZM119.701 34.5582H127.625V38.8274C128.456 37.2826 129.703 36.0057 131.221 35.1434C132.739 34.281 134.468 33.8683 136.208 33.9525C141.36 33.9525 144.784 37.079 144.784 44.0356V63.2417H136.859V45.2391C136.859 41.9116 135.498 40.4145 132.622 40.4145C131.928 40.362 131.232 40.4659 130.584 40.7186C129.935 40.9714 129.35 41.3666 128.872 41.8756C128.393 42.3846 128.033 42.9947 127.817 43.6615C127.602 44.3284 127.536 45.0354 127.625 45.7311V63.2417H119.709L119.701 34.5582ZM96.467 45.5645H107.112C106.946 41.3482 105.043 39.5416 101.902 39.5416C99.427 39.5416 97.1198 40.9064 96.467 45.5645ZM102.114 63.7971C93.9186 63.7971 88.3289 58.872 88.3289 49.339V48.81C88.3289 39.2268 94.2411 33.9604 101.842 33.9604C108.9 33.9604 114.82 37.9625 114.82 47.4372V50.8891H96.3595C96.6898 56.0311 98.8345 58.0097 102.28 58.0097C103.448 58.1152 104.614 57.7968 105.57 57.1116C106.526 56.4264 107.209 55.4196 107.494 54.2721H114.835C113.947 59.6972 109.552 63.7971 102.114 63.7971ZM72.3673 63.7971C64.5018 63.7971 58.7968 58.872 58.7968 49.183V48.7994C58.7968 39.0998 64.8741 33.9498 72.4302 33.9498C78.893 33.9498 84.2126 37.2774 84.8628 44.763H77.2596C76.7719 41.9751 75.364 40.1632 72.5927 40.1632C69.229 40.1632 66.8955 42.8506 66.8955 48.482V49.3152C66.8955 55.1344 68.9563 57.7504 72.6635 57.7504C74.0093 57.7106 75.2899 57.1566 76.2462 56.2005C77.2026 55.2445 77.7635 53.9577 77.8154 52.6004H85.0385C84.9718 54.1846 84.587 55.7387 83.9076 57.1685C83.2282 58.5984 82.2681 59.8742 81.0857 60.9187C79.9033 61.9633 78.523 62.7549 77.0284 63.2456C75.5339 63.7362 73.9562 63.9158 72.3909 63.7733L72.3673 63.7971ZM42.8745 63.7971C35.0091 63.7971 29.304 58.872 29.304 49.183V48.7994C29.2621 39.1157 35.3342 33.9498 42.8745 33.9498C49.3373 33.9498 54.6569 37.2774 55.3071 44.763H47.717C47.2293 41.9751 45.8214 40.1632 43.0502 40.1632C39.6864 40.1632 37.353 42.8506 37.353 48.482V49.3152C37.353 55.1344 39.4137 57.7504 43.121 57.7504C44.4667 57.7106 45.7473 57.1566 46.7037 56.2005C47.66 55.2445 48.2209 53.9577 48.2728 52.6004H55.4959C55.4292 54.1846 55.0444 55.7387 54.365 57.1685C53.6856 58.5984 52.7256 59.8742 51.5431 60.9187C50.3607 61.9633 48.9804 62.7549 47.4858 63.2456C45.9913 63.7362 44.4136 63.9158 42.8483 63.7733L42.8745 63.7971ZM16.9343 53.6664V50.9287H13.7881C9.87637 50.9287 7.86544 52.0264 7.86544 54.5975V54.862C7.86544 56.8326 9.05312 58.1895 11.7169 58.1895C12.3603 58.2613 13.0115 58.1983 13.6296 58.0044C14.2478 57.8106 14.8196 57.4901 15.3094 57.0631C15.7991 56.636 16.1962 56.1116 16.4758 55.5226C16.7554 54.9335 16.9115 54.2926 16.9343 53.64V53.6664ZM9.33103 63.7971C4.23685 63.7971 0 61.1679 0 55.3725V55.0392C0 47.9768 6.07736 45.6729 13.4053 45.6729H16.9343V44.308C16.9343 41.454 15.6889 39.7082 12.7551 39.7082C12.2288 39.6537 11.697 39.708 11.1921 39.8677C10.6873 40.0275 10.22 40.2894 9.81882 40.6374C9.41766 40.9855 9.09101 41.4123 8.85884 41.892C8.62667 42.3717 8.49383 42.894 8.46845 43.4272H0.865198C1.41054 37.079 6.40509 33.9525 13.1327 33.9525C19.8602 33.9525 24.8574 36.915 24.8574 44.0356V63.2417H17.0995V59.9141C16.2334 61.1683 15.0677 62.1817 13.7102 62.8605C12.3527 63.5392 10.8474 63.8614 9.33365 63.7971H9.33103Z" fill="white"/>
<path d="M143.431 18.2909L157.589 12.9742L143.431 7.39305V0L167.696 9.85829V15.9949L143.431 25.9035V18.2909Z" fill="white"/>
</svg>
