<svg width="17" height="16" viewBox="0 0 17 16" fill="none" xmlns="http://www.w3.org/2000/svg">
<path fill-rule="evenodd" clip-rule="evenodd" d="M8.50002 2.00002C5.18631 2.00002 2.50002 4.68631 2.50002 8.00002C2.50002 11.3137 5.18631 14 8.50002 14C11.8137 14 14.5 11.3137 14.5 8.00002C14.5 4.68631 11.8137 2.00002 8.50002 2.00002ZM1.16669 8.00002C1.16669 3.94993 4.44993 0.666687 8.50002 0.666687C12.5501 0.666687 15.8334 3.94993 15.8334 8.00002C15.8334 12.0501 12.5501 15.3334 8.50002 15.3334C4.44993 15.3334 1.16669 12.0501 1.16669 8.00002Z" fill="#482BD9"/>
<path fill-rule="evenodd" clip-rule="evenodd" d="M8.02858 4.86195C8.28892 4.6016 8.71103 4.6016 8.97138 4.86195L11.6381 7.52862C11.8984 7.78897 11.8984 8.21108 11.6381 8.47142L8.97138 11.1381C8.71103 11.3984 8.28892 11.3984 8.02858 11.1381C7.76823 10.8777 7.76823 10.4556 8.02858 10.1953L10.2238 8.00002L8.02858 5.80476C7.76823 5.54441 7.76823 5.1223 8.02858 4.86195Z" fill="#482BD9"/>
<path fill-rule="evenodd" clip-rule="evenodd" d="M5.16669 7.99998C5.16669 7.63179 5.46516 7.33331 5.83335 7.33331H11.1667C11.5349 7.33331 11.8334 7.63179 11.8334 7.99998C11.8334 8.36817 11.5349 8.66665 11.1667 8.66665H5.83335C5.46516 8.66665 5.16669 8.36817 5.16669 7.99998Z" fill="#482BD9"/>
</svg>
