<svg width="17" height="16" viewBox="0 0 17 16" fill="none" xmlns="http://www.w3.org/2000/svg">
<path fill-rule="evenodd" clip-rule="evenodd" d="M8.50002 1.99999C5.18631 1.99999 2.50002 4.68628 2.50002 7.99999C2.50002 11.3137 5.18631 14 8.50002 14C11.8137 14 14.5 11.3137 14.5 7.99999C14.5 4.68628 11.8137 1.99999 8.50002 1.99999ZM1.16669 7.99999C1.16669 3.9499 4.44993 0.666656 8.50002 0.666656C12.5501 0.666656 15.8334 3.9499 15.8334 7.99999C15.8334 12.0501 12.5501 15.3333 8.50002 15.3333C4.44993 15.3333 1.16669 12.0501 1.16669 7.99999Z" fill="white"/>
<path fill-rule="evenodd" clip-rule="evenodd" d="M8.02858 4.86192C8.28892 4.60157 8.71103 4.60157 8.97138 4.86192L11.6381 7.52859C11.8984 7.78893 11.8984 8.21104 11.6381 8.47139L8.97138 11.1381C8.71103 11.3984 8.28892 11.3984 8.02858 11.1381C7.76823 10.8777 7.76823 10.4556 8.02858 10.1953L10.2238 7.99999L8.02858 5.80473C7.76823 5.54438 7.76823 5.12227 8.02858 4.86192Z" fill="white"/>
<path fill-rule="evenodd" clip-rule="evenodd" d="M5.16669 8.00001C5.16669 7.63182 5.46516 7.33334 5.83335 7.33334H11.1667C11.5349 7.33334 11.8334 7.63182 11.8334 8.00001C11.8334 8.3682 11.5349 8.66668 11.1667 8.66668H5.83335C5.46516 8.66668 5.16669 8.3682 5.16669 8.00001Z" fill="white"/>
</svg>
